<svg width="78" height="39" viewBox="0 0 78 39" fill="none" xmlns="http://www.w3.org/2000/svg">
<path d="M32.9979 21.4881H30.1581V20.39C30.1581 18.9512 30.9911 18.5347 31.7105 18.5347C32.5056 18.5347 33.1115 18.8755 33.1115 18.8755L34.0581 16.6793C34.0581 16.6793 33.0736 16.0356 31.294 16.0356C29.2872 16.0356 27.0153 17.1716 27.0153 20.6929V21.4881H22.3202V20.39C22.3202 18.9512 23.1532 18.5347 23.8726 18.5347C24.2891 18.5347 24.8192 18.6104 25.2736 18.8755L26.2202 16.6793C25.6522 16.3386 24.7056 16.0356 23.4561 16.0356C21.4493 16.0356 19.1775 17.1716 19.1775 20.6929V21.4881H17.36V23.9114H19.1775V32.3929H22.2823V23.9114H27.0532V32.3929H30.1581V23.9114H32.9979V21.4881Z" fill="#121319"/>
<path d="M40.5712 21.488V32.3929H43.676V27.1298C43.676 24.6308 45.1906 23.9113 46.2508 23.9113C46.6673 23.9113 47.2352 24.0249 47.576 24.29L48.144 21.4123C47.6517 21.223 47.1595 21.1473 46.743 21.1473C45.1527 21.1473 44.1304 21.8667 43.4488 23.3055V21.488H40.5712Z" fill="#121319"/>
<path fill-rule="evenodd" clip-rule="evenodd" d="M11.302 21.1852C9.52243 21.1852 7.4399 22.0182 6.30398 22.9269L7.32631 25.0852C8.23505 24.2522 9.67388 23.5706 10.9991 23.5706C12.2486 23.5706 12.9302 23.9871 12.9302 24.8201C12.9302 25.3881 12.4758 25.6531 11.605 25.7667C8.3865 26.1832 5.84961 27.0541 5.84961 29.5531C5.84961 31.5221 7.25058 32.7337 9.4467 32.7337C10.9991 32.7337 12.4001 31.8628 13.0816 30.7269V32.3929H15.9972V25.2745C15.9972 22.359 13.9525 21.1852 11.302 21.1852ZM10.204 30.424C9.37097 30.424 8.99233 30.0075 8.99233 29.3638C8.99233 28.1143 10.3554 27.6978 12.8923 27.4327C12.8923 29.0988 11.7564 30.424 10.204 30.424Z" fill="#121319"/>
<path d="M59.1246 23.1162C59.7683 22.1696 60.98 21.1852 62.646 21.1852C64.6528 21.1852 66.2809 22.3968 66.2431 24.858V32.3929H63.1382V25.8424C63.1382 24.4036 62.2673 23.7978 61.4343 23.7978C60.412 23.7978 59.3897 24.7444 59.3897 26.789V32.3929H56.2848V25.8803C56.2848 24.3657 55.4897 23.7978 54.5809 23.7978C53.5965 23.7978 52.5363 24.7823 52.5363 26.789V32.3929H49.4314V21.4881H52.4227V23.1541C52.9528 22.0939 54.0887 21.1852 55.7547 21.1852C57.2693 21.1852 58.5188 21.9046 59.1246 23.1162Z" fill="#121319"/>
<path d="M34.8539 21.488H37.9587V32.3929H34.8539V21.488Z" fill="#121319"/>
<path d="M53.028 6.2666C44.6221 6.2666 37.0872 12.0977 34.9668 19.6326H38.0338C39.8134 14.0287 45.8717 9.10641 53.028 9.10641C61.7746 9.10641 69.3095 15.7705 69.3095 26.1074C69.3095 28.4171 69.0066 30.5375 68.4387 32.3928H71.3921L71.4299 32.2792C71.9221 30.386 72.1493 28.3035 72.1493 26.1074C72.1493 14.5967 63.7435 6.2666 53.028 6.2666Z" fill="#4A4AF4"/>
</svg>
