<svg width="20" height="20" viewBox="0 0 20 20" fill="none" xmlns="http://www.w3.org/2000/svg">
<path fill-rule="evenodd" clip-rule="evenodd" d="M10.1255 0.877899C10.7474 0.78009 11.3768 1.0009 11.8014 1.46576C12.1206 1.81541 12.2079 2.32198 12.2487 2.80343C12.2918 3.31184 12.2918 3.98903 12.2918 4.83643V4.86822V6.33332C12.2918 6.69367 12.2923 6.92634 12.3068 7.10342C12.3206 7.27321 12.3442 7.33616 12.3599 7.36707C12.4198 7.48467 12.5155 7.58028 12.6331 7.6402C12.664 7.65595 12.7269 7.67949 12.8967 7.69337C13.0738 7.70783 13.3065 7.70832 13.6668 7.70832H14.1722H14.2038C14.843 7.70831 15.366 7.7083 15.7702 7.74502C16.1695 7.78129 16.5802 7.86074 16.9024 8.11793C17.3487 8.47416 17.6083 9.01433 17.6077 9.58535C17.6072 9.9976 17.4127 10.368 17.1916 10.7024C16.9677 11.041 16.641 11.4494 16.2417 11.9485L16.222 11.9731L12.3832 16.7716L12.3634 16.7964C11.834 17.4581 11.411 17.9869 11.0597 18.357C10.7271 18.7074 10.3425 19.0485 9.87478 19.1221C9.25289 19.2199 8.62342 18.9991 8.19891 18.5342C7.87961 18.1846 7.7924 17.678 7.75157 17.1965C7.70845 16.6881 7.70846 16.0109 7.70846 15.1635V15.1318V13.6667C7.70846 13.3063 7.70798 13.0736 7.69351 12.8966C7.67964 12.7268 7.65609 12.6638 7.64034 12.6329C7.58042 12.5153 7.48481 12.4197 7.36721 12.3598C7.33631 12.344 7.27336 12.3205 7.10357 12.3066C6.92648 12.2921 6.69381 12.2917 6.33346 12.2917H5.82805H5.79645C5.15723 12.2917 4.63431 12.2917 4.23011 12.255C3.83079 12.2187 3.42005 12.1392 3.09786 11.882C2.65158 11.5258 2.39196 10.9856 2.39258 10.4146C2.39302 10.0024 2.58757 9.632 2.8087 9.29753C3.03253 8.95897 3.35922 8.55063 3.75855 8.05148L3.77827 8.02683L7.61702 3.22839L7.63685 3.2036C8.16622 2.54187 8.58926 2.01307 8.94054 1.64299C9.27318 1.29255 9.65774 0.951465 10.1255 0.877899Z" fill="#4A4AF4"/>
</svg>
