<svg width="145" height="144" viewBox="0 0 145 144" fill="none" xmlns="http://www.w3.org/2000/svg">
<path d="M125.307 118.88C128.891 114.894 133.25 111.676 138.122 109.425L125.307 118.88Z" fill="white"/>
<path d="M121.85 116.469C125.248 112.324 129.457 108.908 134.218 106.436" stroke="#212189" stroke-width="1.0571" stroke-linecap="round" stroke-linejoin="round"/>
<path d="M125.307 118.88C121.492 122.658 118.492 127.17 116.479 132.14L125.307 118.88Z" fill="white"/>
<path d="M121.848 116.469C118.21 120.416 115.418 125.06 113.639 130.123" stroke="#212189" stroke-width="1.0571" stroke-linecap="round" stroke-linejoin="round"/>
<path d="M108.413 130.264C105.683 127.143 109.183 118.262 116.613 110.51C124.216 102.578 131.597 98.3842 136.217 101.827" stroke="#212189" stroke-width="1.10084" stroke-linecap="round" stroke-linejoin="round"/>
<path d="M108.414 130.264L111.268 132.965L114.052 135.601C114.968 136.47 116.092 137.084 117.318 137.38C118.539 137.675 119.827 137.645 121.035 137.287C124.712 136.161 129.297 132.974 133.673 128.556L134.572 127.637C137.174 124.909 139.369 122.129 140.962 119.498C142.214 117.427 143.099 115.45 143.515 113.671C143.776 112.603 143.785 111.486 143.546 110.413C143.511 110.263 143.466 110.109 143.422 109.958C143.064 108.753 142.396 107.659 141.48 106.789L138.692 104.149L136.355 101.942C136.306 101.894 136.253 101.85 136.2 101.819" stroke="#212189" stroke-width="1.0571" stroke-linecap="round" stroke-linejoin="round"/>
<path d="M131.014 136.859C133.182 137.759 136.169 136.188 139.71 132.52C143.245 128.852 144.719 125.634 143.67 123.612L140.227 118.58C138.904 117.326 134.129 120.195 130.638 123.846C127.151 127.496 124.531 132.405 125.863 133.672L131.076 136.837L131.014 136.855V136.859Z" fill="#D4D4FF" stroke="#212189" stroke-width="1.0571" stroke-linejoin="round"/>
<path fill-rule="evenodd" clip-rule="evenodd" d="M137.978 125.152C136.35 123.629 133.788 123.709 132.257 125.333C130.73 126.958 130.81 129.514 132.438 131.037C134.067 132.564 136.629 132.484 138.155 130.86C139.687 129.231 139.607 126.68 137.978 125.152ZM137.744 130.476C136.425 131.871 134.221 131.941 132.823 130.63C131.42 129.315 131.349 127.117 132.668 125.722C133.987 124.322 136.191 124.252 137.589 125.567C138.992 126.883 139.058 129.081 137.744 130.476Z" fill="#212189"/>
<path fill-rule="evenodd" clip-rule="evenodd" d="M136.51 129.319C136.403 129.429 136.226 129.438 136.107 129.332L135.213 128.493L134.381 129.376C134.275 129.491 134.093 129.496 133.978 129.39C133.863 129.284 133.859 129.107 133.965 128.992L134.801 128.105L133.912 127.275C133.797 127.169 133.793 126.988 133.899 126.873C134.005 126.759 134.182 126.754 134.301 126.86L135.191 127.69L136.032 126.794C136.138 126.684 136.315 126.675 136.434 126.781C136.545 126.887 136.554 127.068 136.448 127.182L135.607 128.079L136.501 128.917C136.616 129.023 136.62 129.2 136.514 129.319H136.51Z" fill="#212189"/>
<path d="M21.5997 138.6C33.5288 138.6 43.1993 136.659 43.1993 134.265C43.1993 131.871 33.5288 129.93 21.5997 129.93C9.6705 129.93 0 131.871 0 134.265C0 136.659 9.6705 138.6 21.5997 138.6Z" fill="#212189"/>
<path d="M22.8398 62.5691C24.4462 63.1827 26.1632 63.4652 27.8802 63.4034L22.8398 62.5691Z" fill="white"/>
<path d="M32.9301 62.6265C31.3193 63.2268 29.6023 63.4917 27.8809 63.4078L32.9301 62.6265Z" fill="white"/>
<path d="M27.812 71.0044C22.4442 71.1324 17.1073 70.1657 12.1289 68.166L27.812 71.0044Z" fill="white"/>
<path d="M27.8125 71.0046C33.1848 71.19 38.5349 70.2807 43.5443 68.334L27.8125 71.0046Z" fill="white"/>
<path d="M44.1384 125.843C40.5185 123.9 34.5135 122.664 27.7251 122.757C20.9368 122.854 14.9716 124.267 11.4092 126.315L7.88672 126.368L7.94867 130.747C8.01063 134.993 16.9762 138.313 27.9508 138.158C38.9299 138.004 47.7937 134.419 47.7273 130.173L47.6653 125.794L44.1428 125.847V125.838L44.1384 125.843Z" fill="#FFCA61"/>
<path d="M44.494 126.964L44.5515 131.029L44.5958 134.044M32.6963 130.451L32.8025 137.814M16.4512 130.093L16.5485 136.75" stroke="#212189" stroke-width="1.11542" stroke-linecap="round" stroke-linejoin="round"/>
<path d="M44.1479 125.851C44.1479 125.851 34.5186 122.664 27.7302 122.757C20.9419 122.854 14.9766 124.267 11.4143 126.315L7.93164 125.864L7.94934 130.751C8.01129 134.998 16.9769 138.317 27.9515 138.163C38.9305 138.008 47.6439 134.384 47.7014 130.115V125.383" stroke="#212189" stroke-width="1.11542" stroke-miterlimit="10"/>
<path d="M27.8756 133.113C38.8546 132.958 47.5193 129.374 47.4573 125.127C47.3954 120.881 38.6289 117.561 27.6499 117.716C16.6708 117.87 7.80704 121.455 7.87342 125.701C7.93537 129.948 16.9009 133.267 27.8756 133.113Z" fill="white"/>
<path d="M27.9361 133.011C38.924 132.852 47.7612 129.277 47.7037 125.026C47.6417 120.775 38.6983 117.455 27.7104 117.614C16.7225 117.773 7.87196 121.349 7.93392 125.599C7.99587 129.85 16.9526 133.17 27.9361 133.011Z" stroke="#212189" stroke-width="1.11542" stroke-linecap="round" stroke-linejoin="round"/>
<path d="M32.7037 126.139C33.04 126.333 33.31 126.593 33.4472 126.924C33.5844 127.255 33.6552 127.582 33.5976 127.988C33.5313 128.319 33.4118 128.655 33.1463 128.924C32.6241 129.463 32.0267 129.802 31.2965 130.01C29.1768 130.707 26.9863 130.999 24.7869 130.902C21.9282 130.879 18.9279 130.522 16.379 129.233C14.7726 128.39 12.9582 127.494 12.8034 125.763C12.7237 124.7 14.5027 123.817 15.9674 123.662C19.2244 123.283 20.8972 123.724 23.9683 124.739C26.7739 125.759 30.084 124.519 32.7082 126.139H32.7037Z" fill="#FCF9E8"/>
<path d="M27.8523 131.391C21.9977 131.475 16.8556 130.288 14.2402 128.469M31.4766 119.588C38.2074 120.153 43.1637 122.404 43.2035 125.26C43.2035 125.657 43.084 126.125 42.8849 126.461" stroke="#212189" stroke-width="1.11542" stroke-linecap="round" stroke-linejoin="round"/>
<path d="M44.1384 120.691C40.5185 118.749 34.5135 117.513 27.7251 117.605C20.9368 117.703 14.9716 119.115 11.4092 121.163L7.88672 121.216L7.94867 125.595C8.01063 129.842 16.9762 133.161 27.9508 133.007C38.9299 132.852 47.7937 129.268 47.7273 125.021L47.6653 120.642L44.1428 120.695V120.687L44.1384 120.691Z" fill="white"/>
<path d="M12.9277 125.313V130.455M38.3021 124.368L38.4083 131.51M23.9333 126.324L24.0307 132.738" stroke="#212189" stroke-width="1.11542" stroke-linecap="round" stroke-linejoin="round"/>
<path d="M44.1479 120.7C44.1479 120.7 34.5186 117.513 27.7302 117.605C20.9419 117.702 14.9766 119.115 11.4143 121.163L7.93164 120.713L7.94934 125.599C8.01129 129.846 16.9769 133.165 27.9515 133.011C38.9305 132.856 47.6439 129.232 47.7014 124.964V120.232" stroke="#212189" stroke-width="1.11542" stroke-miterlimit="10"/>
<path d="M27.8756 127.961C38.8546 127.807 47.5193 124.222 47.4573 119.976C47.3954 115.729 38.6289 112.41 27.6499 112.564C16.6708 112.719 7.80704 116.303 7.87342 120.55C7.93537 124.796 16.9009 128.116 27.8756 127.961Z" fill="white"/>
<path d="M27.9361 127.86C38.924 127.701 47.7612 124.126 47.7037 119.875C47.6417 115.624 38.6983 112.304 27.7104 112.463C16.7225 112.622 7.87196 116.198 7.93392 120.449C7.99587 124.7 16.9526 128.019 27.9361 127.86Z" stroke="#212189" stroke-width="1.11542" stroke-linecap="round" stroke-linejoin="round"/>
<path d="M32.7037 120.987C33.04 121.181 33.31 121.442 33.4472 121.773C33.5844 122.104 33.6552 122.43 33.5976 122.837C33.5313 123.168 33.4118 123.503 33.1463 123.772C32.6241 124.311 32.0267 124.651 31.2965 124.858C29.1768 125.556 26.9863 125.847 24.7869 125.75C21.9282 125.728 18.9279 125.37 16.379 124.081C14.7726 123.238 12.9582 122.342 12.8034 120.612C12.7237 119.548 14.5027 118.665 15.9674 118.511C19.2244 118.131 20.8972 118.572 23.9683 119.588C26.7739 120.607 30.084 119.367 32.7082 120.987H32.7037Z" fill="#FCF9E8"/>
<path d="M27.8523 126.24C21.9977 126.324 16.8556 125.136 14.2402 123.317M31.4766 114.436C38.2074 115.001 43.1637 117.252 43.2035 120.108C43.2035 120.506 43.084 120.974 42.8849 121.309" stroke="#212189" stroke-width="1.11542" stroke-linecap="round" stroke-linejoin="round"/>
<path d="M44.1384 115.663C40.5185 113.721 34.5135 112.485 27.7251 112.578C20.9368 112.675 14.9716 114.087 11.4092 116.136L7.88672 116.188L7.94867 120.567C8.01063 124.814 16.9762 128.133 27.9508 127.979C38.9299 127.824 47.7937 124.24 47.7273 119.994L47.6653 115.615L44.1428 115.668V115.659L44.1384 115.663Z" fill="#FCF9E8"/>
<path d="M44.494 116.785L44.5515 120.85L44.5958 123.865M32.6963 120.272L32.8025 127.635M16.4512 119.915L16.5485 126.571" stroke="#212189" stroke-width="1.11542" stroke-linecap="round" stroke-linejoin="round"/>
<path d="M44.1479 115.672C44.1479 115.672 34.5186 112.485 27.7302 112.578C20.9419 112.675 14.9766 114.087 11.4143 116.136L7.93164 115.685L7.94934 120.572C8.01129 124.818 16.9769 128.138 27.9515 127.983C38.9305 127.829 47.6439 124.205 47.7014 119.936V115.204" stroke="#212189" stroke-width="1.11542" stroke-miterlimit="10"/>
<path d="M27.8756 122.934C38.8546 122.779 47.5193 119.195 47.4573 114.948C47.3954 110.702 38.6289 107.382 27.6499 107.537C16.6708 107.691 7.80704 111.276 7.87342 115.522C7.93537 119.769 16.9009 123.088 27.8756 122.934Z" fill="white"/>
<path d="M27.9361 122.832C38.924 122.673 47.7612 119.098 47.7037 114.847C47.6417 110.596 38.6983 107.276 27.7104 107.435C16.7225 107.594 7.87196 111.17 7.93392 115.421C7.99587 119.672 16.9526 122.991 27.9361 122.832Z" stroke="#212189" stroke-width="1.11542" stroke-linecap="round" stroke-linejoin="round"/>
<path d="M32.7037 115.963C33.04 116.158 33.31 116.418 33.4472 116.749C33.5844 117.08 33.6552 117.407 33.5976 117.813C33.5313 118.144 33.4118 118.479 33.1463 118.749C32.6241 119.287 32.0267 119.627 31.2965 119.835C29.1768 120.532 26.9863 120.823 24.7869 120.726C21.9282 120.704 18.9279 120.347 16.379 119.058C14.7726 118.215 12.9582 117.318 12.8034 115.588C12.7237 114.524 14.5027 113.641 15.9674 113.487C19.2244 113.107 20.8972 113.549 23.9683 114.564C26.7739 115.584 30.084 114.343 32.7082 115.963H32.7037Z" fill="#FCF9E8"/>
<path d="M27.8523 121.212C21.9977 121.296 16.8556 120.108 14.2402 118.29M31.4766 109.408C38.2074 109.973 43.1637 112.224 43.2035 115.08C43.2035 115.478 43.084 115.946 42.8849 116.281" stroke="#212189" stroke-width="1.11542" stroke-linecap="round" stroke-linejoin="round"/>
<path d="M44.1384 110.468C40.5185 108.525 34.5135 107.289 27.7251 107.382C20.9368 107.479 14.9716 108.892 11.4092 110.94L7.88672 110.993L7.94867 115.372C8.01063 119.618 16.9762 122.938 27.9508 122.783C38.9299 122.629 47.7937 119.044 47.7273 114.798L47.6653 110.419L44.1428 110.472V110.463L44.1384 110.468Z" fill="#FFE98F"/>
<path d="M12.9277 115.089V120.232M38.3021 114.145L38.4083 121.287M23.9333 116.1L24.0307 122.514" stroke="#212189" stroke-width="1.11542" stroke-linecap="round" stroke-linejoin="round"/>
<path d="M44.1479 110.476C44.1479 110.476 34.5186 107.289 27.7302 107.382C20.9419 107.479 14.9766 108.892 11.4143 110.94L7.93164 110.489L7.94934 115.376C8.01129 119.623 16.9769 122.942 27.9515 122.788C38.9305 122.633 47.6439 119.009 47.7014 114.74V110.008" stroke="#212189" stroke-width="1.11542" stroke-miterlimit="10"/>
<path d="M27.8756 117.738C38.8546 117.583 47.5193 113.999 47.4573 109.752C47.3954 105.506 38.6289 102.186 27.6499 102.341C16.6708 102.495 7.80704 106.08 7.87342 110.326C7.93537 114.573 16.9009 117.892 27.8756 117.738Z" fill="white"/>
<path d="M27.9361 117.637C38.924 117.478 47.7612 113.902 47.7037 109.651C47.6417 105.4 38.6983 102.081 27.7104 102.24C16.7225 102.399 7.87196 105.974 7.93392 110.225C7.99587 114.476 16.9526 117.796 27.9361 117.637Z" stroke="#212189" stroke-width="1.11542" stroke-linecap="round" stroke-linejoin="round"/>
<path d="M32.7037 110.764C33.04 110.958 33.31 111.218 33.4472 111.549C33.5844 111.88 33.6552 112.207 33.5976 112.613C33.5313 112.944 33.4118 113.28 33.1463 113.549C32.6241 114.088 32.0267 114.427 31.2965 114.635C29.1768 115.332 26.9863 115.624 24.7869 115.527C21.9282 115.505 18.9279 115.147 16.379 113.858C14.7726 113.015 12.9582 112.119 12.8034 110.388C12.7237 109.325 14.5027 108.442 15.9674 108.287C19.2244 107.908 20.8972 108.349 23.9683 109.364C26.7739 110.384 30.084 109.144 32.7082 110.764H32.7037Z" fill="#FCF9E8"/>
<path d="M27.8523 116.012C21.9977 116.096 16.8556 114.908 14.2402 113.09M31.4766 104.213C38.2074 104.778 43.1637 107.029 43.2035 109.885C43.2035 110.282 43.084 110.75 42.8849 111.086" stroke="#212189" stroke-width="1.11542" stroke-linecap="round" stroke-linejoin="round"/>
<path d="M44.1384 105.33C40.5185 103.387 34.5135 102.151 27.7251 102.244C20.9368 102.341 14.9716 103.754 11.4092 105.802L7.88672 105.855L7.94867 110.234C8.01063 114.48 16.9762 117.8 27.9508 117.645C38.9299 117.491 47.7937 113.907 47.7273 109.66L47.6653 105.281L44.1428 105.334V105.325L44.1384 105.33Z" fill="#FCF9E8"/>
<path d="M44.494 106.451L44.5515 110.516L44.5958 113.531M32.6963 109.938L32.8025 117.301M16.4512 109.581L16.5485 116.237" stroke="#212189" stroke-width="1.11542" stroke-linecap="round" stroke-linejoin="round"/>
<path d="M44.1479 105.343C44.1479 105.343 34.5186 102.156 27.7302 102.249C20.9419 102.346 14.9766 103.758 11.4143 105.806L7.93164 105.356L7.94934 110.243C8.01129 114.489 16.9769 117.809 27.9515 117.654C38.9305 117.5 47.6439 113.876 47.7014 109.607V104.875" stroke="#212189" stroke-width="1.11542" stroke-miterlimit="10"/>
<path d="M27.8756 112.6C38.8546 112.445 47.5193 108.861 47.4573 104.614C47.3954 100.368 38.6289 97.0484 27.6499 97.2029C16.6708 97.3574 7.80704 100.942 7.87342 105.188C7.93537 109.435 16.9009 112.754 27.8756 112.6Z" fill="white"/>
<path d="M27.9361 112.498C38.924 112.339 47.7612 108.764 47.7037 104.513C47.6417 100.262 38.6983 96.9425 27.7104 97.1014C16.7225 97.2603 7.87196 100.836 7.93392 105.087C7.99587 109.338 16.9526 112.657 27.9361 112.498Z" stroke="#212189" stroke-width="1.11542" stroke-linecap="round" stroke-linejoin="round"/>
<path d="M32.7037 105.63C33.04 105.824 33.31 106.084 33.4472 106.415C33.5844 106.746 33.6552 107.073 33.5976 107.479C33.5313 107.81 33.4118 108.146 33.1463 108.415C32.6241 108.953 32.0267 109.293 31.2965 109.501C29.1768 110.198 26.9863 110.49 24.7869 110.393C21.9282 110.37 18.9279 110.013 16.379 108.724C14.7726 107.881 12.9582 106.985 12.8034 105.254C12.7237 104.191 14.5027 103.308 15.9674 103.153C19.2244 102.774 20.8972 103.215 23.9683 104.23C26.7739 105.25 30.084 104.01 32.7082 105.63H32.7037Z" fill="#FCF9E8"/>
<path d="M27.8523 110.878C21.9977 110.962 16.8556 109.774 14.2402 107.956M31.4766 99.0742C38.2074 99.6392 43.1637 101.891 43.2035 104.747C43.2035 105.144 43.084 105.612 42.8849 105.947" stroke="#212189" stroke-width="1.11542" stroke-linecap="round" stroke-linejoin="round"/>
<path d="M44.1384 100.187C40.5185 98.2451 34.5135 97.0091 27.7251 97.1018C20.9368 97.1989 14.9716 98.6115 11.4092 100.66L7.88672 100.713L7.94867 105.092C8.01063 109.338 16.9762 112.658 27.9508 112.503C38.9299 112.349 47.7937 108.764 47.7273 104.518L47.6653 100.139L44.1428 100.192V100.183L44.1384 100.187Z" fill="white"/>
<path d="M12.9277 104.809V109.951M38.3021 103.864L38.4083 111.006M23.9333 105.82L24.0307 112.234" stroke="#212189" stroke-width="1.11542" stroke-linecap="round" stroke-linejoin="round"/>
<path d="M44.1479 100.196C44.1479 100.196 34.5186 97.0089 27.7302 97.1016C20.9419 97.1987 14.9766 98.6113 11.4143 100.659L7.93164 100.209L7.94934 105.096C8.01129 109.342 16.9769 112.662 27.9515 112.507C38.9305 112.353 47.6439 108.729 47.7014 104.46V99.7281" stroke="#212189" stroke-width="1.11542" stroke-miterlimit="10"/>
<path d="M27.8756 107.457C38.8546 107.303 47.5193 103.718 47.4573 99.4719C47.3954 95.2254 38.6289 91.9059 27.6499 92.0604C16.6708 92.2149 7.80704 95.7992 7.87342 100.046C7.93537 104.292 16.9009 107.612 27.8756 107.457Z" fill="white"/>
<path d="M27.9361 107.355C38.924 107.197 47.7612 103.621 47.7037 99.3701C47.6417 95.1192 38.6983 91.7997 27.7104 91.9586C16.7225 92.1175 7.87196 95.693 7.93392 99.944C7.99587 104.195 16.9526 107.514 27.9361 107.355Z" stroke="#212189" stroke-width="1.11542" stroke-linecap="round" stroke-linejoin="round"/>
<path d="M32.7037 100.483C33.04 100.677 33.31 100.937 33.4472 101.268C33.5844 101.599 33.6552 101.926 33.5976 102.332C33.5313 102.663 33.4118 102.999 33.1463 103.268C32.6241 103.807 32.0267 104.146 31.2965 104.354C29.1768 105.051 26.9863 105.343 24.7869 105.246C21.9282 105.223 18.9279 104.866 16.379 103.577C14.7726 102.734 12.9582 101.838 12.8034 100.107C12.7237 99.0435 14.5027 98.1607 15.9674 98.0062C19.2244 97.6266 20.8972 98.068 23.9683 99.0833C26.7739 100.103 30.084 98.8626 32.7082 100.483H32.7037Z" fill="#FCF9E8"/>
<path d="M27.8523 105.736C21.9977 105.82 16.8556 104.632 14.2402 102.814M31.4766 93.9324C38.2074 94.4974 43.1637 96.7487 43.2035 99.6047C43.2035 100.002 43.084 100.47 42.8849 100.805" stroke="#212189" stroke-width="1.11542" stroke-linecap="round" stroke-linejoin="round"/>
<path d="M44.1384 95.0489C40.5185 93.1067 34.5135 91.8707 27.7251 91.9634C20.9368 92.0605 14.9716 93.473 11.4092 95.5212L7.88672 95.5742L7.94867 99.9531C8.01063 104.2 16.9762 107.519 27.9508 107.365C38.9299 107.21 47.7937 103.626 47.7273 99.3793L47.6653 95.0004L44.1428 95.0533V95.0445L44.1384 95.0489Z" fill="#FFCA61"/>
<path d="M44.494 96.1702L44.5515 100.236L44.5958 103.251M32.6963 99.6574L32.8025 107.02M16.4512 99.2999L16.5485 105.957" stroke="#212189" stroke-width="1.11542" stroke-linecap="round" stroke-linejoin="round"/>
<path d="M44.1479 95.0622C44.1479 95.0622 34.5186 91.8751 27.7302 91.9678C20.9419 92.0649 14.9766 93.4775 11.4143 95.5257L7.93164 95.0754L7.94934 99.962C8.01129 104.208 16.9769 107.528 27.9515 107.374C38.9305 107.219 47.6439 103.595 47.7014 99.3263V94.5943" stroke="#212189" stroke-width="1.11542" stroke-miterlimit="10"/>
<path d="M27.8756 102.319C38.8546 102.165 47.5193 98.5804 47.4573 94.3339C47.3954 90.0874 38.6289 86.7679 27.6499 86.9224C16.6708 87.0769 7.80704 90.6613 7.87342 94.9078C7.93537 99.1543 16.9009 102.474 27.8756 102.319Z" fill="white"/>
<path d="M27.9361 102.218C38.924 102.059 47.7612 98.4831 47.7037 94.2322C47.6417 89.9812 38.6983 86.6617 27.7104 86.8207C16.7225 86.9796 7.87196 90.5551 7.93392 94.806C7.99587 99.0569 16.9526 102.376 27.9361 102.218Z" stroke="#212189" stroke-width="1.11542" stroke-linecap="round" stroke-linejoin="round"/>
<path d="M32.7037 95.3486C33.04 95.5428 33.31 95.8032 33.4472 96.1343C33.5844 96.4654 33.6552 96.792 33.5976 97.1981C33.5313 97.5292 33.4118 97.8647 33.1463 98.1339C32.6241 98.6725 32.0267 99.0124 31.2965 99.2199C29.1768 99.9173 26.9863 100.209 24.7869 100.112C21.9282 100.089 18.9279 99.7319 16.379 98.4429C14.7726 97.5998 12.9582 96.7037 12.8034 94.9733C12.7237 93.9095 14.5027 93.0267 15.9674 92.8722C19.2244 92.4925 20.8972 92.934 23.9683 93.9493C26.7739 94.9689 30.084 93.7285 32.7082 95.3486H32.7037Z" fill="#FCF9E8"/>
<path d="M27.8523 100.598C21.9977 100.681 16.8556 99.4941 14.2402 97.6754M31.4766 88.7939C38.2074 89.359 43.1637 91.6102 43.2035 94.4662C43.2035 94.8635 43.084 95.3314 42.8849 95.6669" stroke="#212189" stroke-width="1.11542" stroke-linecap="round" stroke-linejoin="round"/>
<path d="M44.1384 89.9063C40.5185 87.9641 34.5135 86.7281 27.7251 86.8208C20.9368 86.9179 14.9716 88.3305 11.4092 90.3787L7.88672 90.4316L7.94867 94.8106C8.01063 99.0571 16.9762 102.377 27.9508 102.222C38.9299 102.068 47.7937 98.4832 47.7273 94.2367L47.6653 89.8578L44.1428 89.9108V89.9019L44.1384 89.9063Z" fill="#FCF9E8"/>
<path d="M12.9277 94.5281V99.6707M38.3021 93.5835L38.4083 100.726M23.9333 95.539L24.0307 101.953" stroke="#212189" stroke-width="1.11542" stroke-linecap="round" stroke-linejoin="round"/>
<path d="M44.1479 89.915C44.1479 89.915 34.5186 86.7279 27.7302 86.8206C20.9419 86.9177 14.9766 88.3303 11.4143 90.3785L7.93164 89.9282L7.94934 94.8148C8.01129 99.0613 16.9769 102.381 27.9515 102.226C38.9305 102.072 47.6439 98.4477 47.7014 94.1791V89.4471" stroke="#212189" stroke-width="1.11542" stroke-miterlimit="10"/>
<path d="M27.8756 97.1765C38.8546 97.022 47.5193 93.4376 47.4573 89.1911C47.3954 84.9446 38.6289 81.6251 27.6499 81.7796C16.6708 81.9341 7.80704 85.5185 7.87342 89.765C7.93537 94.0115 16.9009 97.331 27.8756 97.1765Z" fill="white"/>
<path d="M27.9361 97.0752C38.924 96.9163 47.7612 93.3407 47.7037 89.0898C47.6417 84.8389 38.6983 81.5194 27.7104 81.6783C16.7225 81.8372 7.87196 85.4128 7.93392 89.6637C7.99587 93.9146 16.9526 97.2341 27.9361 97.0752Z" stroke="#212189" stroke-width="1.11542" stroke-linecap="round" stroke-linejoin="round"/>
<path d="M32.7037 90.2023C33.04 90.3965 33.31 90.657 33.4472 90.9881C33.5844 91.3191 33.6552 91.6458 33.5976 92.0519C33.5313 92.383 33.4118 92.7184 33.1463 92.9877C32.6241 93.5262 32.0267 93.8661 31.2965 94.0736C29.1768 94.7711 26.9863 95.0624 24.7869 94.9653C21.9282 94.9432 18.9279 94.5857 16.379 93.2967C14.7726 92.4536 12.9582 91.5575 12.8034 89.8271C12.7237 88.7633 14.5027 87.8804 15.9674 87.7259C19.2244 87.3463 20.8972 87.7877 23.9683 88.803C26.7739 89.8227 30.084 88.5823 32.7082 90.2023H32.7037Z" fill="#FCF9E8"/>
<path d="M27.8523 95.4548C21.9977 95.5387 16.8556 94.3512 14.2402 92.5326M31.4766 83.6511C38.2074 84.2161 43.1637 86.4674 43.2035 89.3234C43.2035 89.7207 43.084 90.1886 42.8849 90.5241" stroke="#212189" stroke-width="1.11542" stroke-linecap="round" stroke-linejoin="round"/>
<path d="M44.1384 84.7679C40.5185 82.8257 34.5135 81.5897 27.7251 81.6824C20.9368 81.7795 14.9716 83.192 11.4092 85.2402L7.88672 85.2932L7.94867 89.6721C8.01063 93.9186 16.9762 97.2381 27.9508 97.0836C38.9299 96.9292 47.7937 93.3448 47.7273 89.0983L47.6653 84.7194L44.1428 84.7723V84.7635L44.1384 84.7679Z" fill="#FFE98F"/>
<path d="M44.494 85.8896L44.5515 89.9552L44.5958 92.9701M32.6963 89.3813L32.8025 96.7443M16.4512 89.0238L16.5485 95.6804" stroke="#212189" stroke-width="1.11542" stroke-linecap="round" stroke-linejoin="round"/>
<path d="M44.1479 84.7819C44.1479 84.7819 34.5186 81.5948 27.7302 81.6875C20.9419 81.7846 14.9766 83.1972 11.4143 85.2454L7.93164 84.7951L7.94934 89.6817C8.01129 93.9282 16.9769 97.2477 27.9515 97.0932C38.9305 96.9387 47.6439 93.3146 47.7014 89.0461V84.314" stroke="#212189" stroke-width="1.11542" stroke-miterlimit="10"/>
<path d="M27.8756 92.0385C38.8546 91.884 47.5193 88.2997 47.4573 84.0532C47.3954 79.8067 38.6289 76.4872 27.6499 76.6417C16.6708 76.7962 7.80704 80.3805 7.87342 84.627C7.93537 88.8735 16.9009 92.193 27.8756 92.0385Z" fill="white"/>
<path d="M27.9361 91.9368C38.924 91.7779 47.7612 88.2023 47.7037 83.9514C47.6417 79.7005 38.6983 76.381 27.7104 76.5399C16.7225 76.6988 7.87196 80.2743 7.93392 84.5253C7.99587 88.7762 16.9526 92.0957 27.9361 91.9368Z" stroke="#212189" stroke-width="1.11542" stroke-linecap="round" stroke-linejoin="round"/>
<path d="M32.7037 85.0683C33.04 85.2625 33.31 85.523 33.4472 85.854C33.5844 86.1851 33.6552 86.5117 33.5976 86.9179C33.5313 87.2489 33.4118 87.5844 33.1463 87.8537C32.6241 88.3922 32.0267 88.7321 31.2965 88.9396C29.1768 89.637 26.9863 89.9284 24.7869 89.8313C21.9282 89.8092 18.9279 89.4516 16.379 88.1627C14.7726 87.3196 12.9582 86.4235 12.8034 84.6931C12.7237 83.6293 14.5027 82.7464 15.9674 82.5919C19.2244 82.2123 20.8972 82.6537 23.9683 83.669C26.7739 84.6887 30.084 83.4483 32.7082 85.0683H32.7037Z" fill="#FCF9E8"/>
<path d="M27.8523 90.3164C21.9977 90.4002 16.8556 89.2128 14.2402 87.3941M31.4766 78.5127C38.2074 79.0777 43.1637 81.329 43.2035 84.185C43.2035 84.5823 43.084 85.0502 42.8849 85.3857" stroke="#212189" stroke-width="1.11542" stroke-linecap="round" stroke-linejoin="round"/>
<path opacity="0.7" d="M8.26953 71.967C8.26953 71.967 15.3544 76.858 27.8159 76.858C40.2774 76.858 47.4507 72.4747 47.4507 72.4747V129.851C47.4507 130.491 47.2826 131.127 46.9374 131.665C45.6541 133.674 40.4588 137.748 27.4973 137.748C8.27396 137.748 8.26953 130.782 8.26953 130.782V71.967Z" fill="#FCF9E8"/>
<path d="M28.3311 76.7299C22.6491 76.8668 16.9981 75.8471 11.7188 73.7371" stroke="#212189" stroke-width="1.11542" stroke-linecap="round" stroke-linejoin="round"/>
<path d="M28.3301 76.7297C34.0165 76.9195 39.6853 75.9572 44.9867 73.8914" stroke="#212189" stroke-width="1.11542" stroke-linecap="round" stroke-linejoin="round"/>
<path d="M47.7508 84.5513L47.7154 77.7401L47.7331 73.9086C47.742 72.6505 47.4145 71.4145 46.7905 70.3198C46.1666 69.2251 45.2683 68.3157 44.1797 67.6801C40.8386 65.7819 35.3734 64.6298 29.1471 64.4753L27.8637 64.4533C21.1152 64.4135 15.1456 65.4376 11.5346 67.5212C10.4371 68.1436 9.5255 69.0441 8.88826 70.1344C8.25102 71.2203 7.96338 72.5048 7.95896 73.7673L7.89258 77.5503L7.91913 86.2861" stroke="#212189" stroke-width="0.947742" stroke-miterlimit="10"/>
<path d="M37.0403 60.7238C36.2128 58.5299 33.0178 57.4352 27.9154 57.3778C22.8131 57.3204 19.4499 58.4549 18.6976 60.6002L17.3789 66.5462C17.3701 68.3648 22.7379 69.8701 27.796 69.9054C32.854 69.9407 38.2307 68.4796 38.244 66.6477L36.9828 60.6929L37.0403 60.7238Z" fill="#A8A8FF" stroke="#212189" stroke-width="1.09355" stroke-linejoin="round"/>
<path d="M22.8398 62.5691C24.4462 63.1827 26.1632 63.4652 27.8802 63.4034" stroke="#212189" stroke-width="1.0571" stroke-linecap="round" stroke-linejoin="round"/>
<path d="M32.9301 62.6265C31.3193 63.2268 29.6023 63.4917 27.8809 63.4078" stroke="#212189" stroke-width="1.0571" stroke-linecap="round" stroke-linejoin="round"/>
<path d="M25.6987 107.851L25.5438 123.013L39.1692 101.494C36.045 102.222 32.819 102.434 29.6283 102.121L29.5575 85.8235L16.627 106.076C19.5299 107.18 22.5966 107.78 25.7031 107.851H25.6987Z" fill="#FFCA61" stroke="#212189" stroke-width="1.09355" stroke-linejoin="round"/>
<path d="M74.9668 138.6C86.896 138.6 96.5665 136.659 96.5665 134.265C96.5665 131.871 86.896 129.93 74.9668 129.93C63.0377 129.93 53.3672 131.871 53.3672 134.265C53.3672 136.659 63.0377 138.6 74.9668 138.6Z" fill="#212189"/>
<path d="M66.8819 131.391C66.6253 130.972 66.4394 130.526 66.3066 130.063C66.4527 130.526 66.6474 130.972 66.8819 131.391Z" fill="white"/>
<path d="M73.9351 137.814C70.8994 137.333 68.2708 136.56 66.1953 135.682C68.7 136.653 71.2976 137.363 73.9351 137.814Z" fill="white"/>
<path d="M99.9699 132.066C100.766 130.786 101.178 129.307 101.151 127.798L100.625 95.415L100.594 93.3094L100.466 84.8252L100.417 81.8015L100.395 80.6096H100.412L101.218 129.842C100.992 130.777 100.461 131.687 99.6602 132.539C99.7664 132.384 99.877 132.234 99.9744 132.071L99.9699 132.066Z" fill="white"/>
<path d="M100.224 81.881L100.414 81.8015L100.463 84.8253L100.591 93.3094L100.622 95.415L101.149 127.798C101.176 129.308 100.764 130.786 99.9675 132.066C99.8701 132.23 99.7639 132.384 99.6533 132.534V132.548C99.3125 132.91 98.9275 133.254 98.4938 133.594C98.4009 133.669 98.308 133.739 98.2151 133.814C97.9495 134.013 97.6619 134.207 97.3566 134.397C97.2415 134.472 97.1264 134.543 97.007 134.618C96.8609 134.706 96.7149 134.786 96.5644 134.869C96.4405 134.94 96.3166 135.006 96.1883 135.073C95.2324 135.576 94.1615 136.039 92.98 136.445C92.7808 136.516 92.5817 136.578 92.3826 136.64H92.3649C92.2011 136.697 92.033 136.746 91.8648 136.798C91.6967 136.851 91.5241 136.9 91.3515 136.949C91.1789 136.997 91.0019 137.046 90.8205 137.09C90.7762 137.099 90.7275 137.116 90.6789 137.125C90.6302 137.138 90.5859 137.152 90.5328 137.16C90.4886 137.178 90.4487 137.191 90.4133 137.191C89.7849 137.346 89.1389 137.487 88.4706 137.606C88.2715 137.642 88.068 137.681 87.8644 137.717C85.8111 138.07 83.5719 138.277 81.1867 138.313C78.5891 138.352 76.1507 138.158 73.9293 137.809C71.2918 137.364 68.6942 136.653 66.1895 135.677C65.9063 135.554 65.6275 135.43 65.362 135.311C64.0123 134.644 62.7776 133.342 61.9811 132.066C61.9811 132.066 61.9678 132.062 61.9722 132.044C61.7377 131.621 61.543 131.179 61.397 130.716C61.127 129.771 61.0783 128.747 61.0739 127.745L60.3659 83.6864L60.3438 82.6314" stroke="#212189" stroke-width="1.06439" stroke-linejoin="round"/>
<path d="M66.3105 130.063C66.0715 129.33 65.9432 128.557 65.9343 127.781L65.3015 89.2708L65.1953 83.0334H65.2219H65.2794L65.9874 127.092C65.9874 128.09 66.0405 129.118 66.3105 130.063Z" stroke="#212189" stroke-width="1.06439" stroke-linejoin="round"/>
<path d="M71.1029 135.024C70.9658 134.975 70.833 134.918 70.7002 134.869C69.3019 134.273 68.1071 133.289 67.2618 132.026C67.1291 131.828 67.0052 131.629 66.8945 131.413C67.6911 132.689 68.9301 133.986 70.2754 134.657C70.5409 134.781 70.8153 134.904 71.1029 135.024Z" stroke="#212189" stroke-width="1.06439" stroke-linejoin="round"/>
<path d="M81.1935 138.322C85.0125 138.26 88.4465 137.761 91.3583 136.953C88.0659 137.889 84.654 138.37 81.22 138.384C78.7684 138.419 76.3301 138.225 73.9316 137.819C76.1531 138.167 78.5914 138.362 81.1891 138.322H81.1935Z" stroke="#212189" stroke-width="1.06439" stroke-linejoin="round"/>
<path d="M91.3594 136.95C91.7045 136.852 92.0453 136.746 92.3905 136.64C92.0541 136.746 91.7134 136.852 91.3594 136.95Z" stroke="#212189" stroke-width="1.06439" stroke-linejoin="round"/>
<path d="M99.6505 132.548C98.8805 133.603 97.8539 134.455 96.6635 135.02C95.2695 135.647 93.8402 136.19 92.3887 136.64C95.628 135.611 98.1238 134.177 99.6505 132.543V132.548Z" stroke="#212189" stroke-width="1.06439" stroke-linejoin="round"/>
<path d="M97.6246 125.608C93.9516 123.697 87.889 122.523 81.052 122.704C74.215 122.885 68.2232 124.386 64.6565 126.491L61.1074 126.588L61.2225 130.998C61.3375 135.276 70.4093 138.511 81.468 138.22C92.5267 137.929 101.413 134.207 101.298 129.93L101.183 125.516L97.6335 125.613V125.604L97.6246 125.608Z" fill="#FFCA61"/>
<path d="M97.9928 126.734L98.1034 130.831L98.1875 133.868M86.1464 130.394L86.3455 137.814M69.7773 130.235L69.9588 136.94" stroke="#212189" stroke-width="1.10084" stroke-linecap="round" stroke-linejoin="round"/>
<path d="M97.6239 125.608C93.9509 123.697 87.8883 122.523 81.0513 122.704C74.2143 122.885 68.2225 124.386 64.6558 126.491L60.9961 126.257L61.1111 130.667C61.2262 134.945 70.4086 138.511 81.4673 138.22C92.526 137.929 101.412 134.207 101.297 129.93L101.058 124.077L97.6283 125.617V125.608H97.6239Z" stroke="#212189" stroke-width="1.10084" stroke-miterlimit="10"/>
<path d="M81.3267 133.135C92.3854 132.843 101.271 129.122 101.156 124.845C101.041 120.567 91.9694 117.332 80.9107 117.623C69.852 117.915 60.9661 121.636 61.0812 125.913C61.1962 130.191 70.268 133.426 81.3267 133.135Z" fill="white"/>
<path d="M81.2485 133.042C92.3161 132.746 101.189 129.034 101.078 124.752C100.963 120.47 91.9001 117.235 80.8325 117.53C69.765 117.826 60.8923 121.539 61.003 125.82C61.118 130.102 70.181 133.338 81.2485 133.042Z" stroke="#212189" stroke-width="1.10084" stroke-linecap="round" stroke-linejoin="round"/>
<path d="M86.0998 126.05C86.4449 126.24 86.7193 126.5 86.8609 126.831C87.0025 127.163 87.0777 127.489 87.0246 127.9C86.9627 128.235 86.8432 128.575 86.5821 128.849C86.0599 129.396 85.467 129.745 84.7324 129.966C82.6082 130.694 80.4045 131.016 78.183 130.946C75.3021 130.959 72.2753 130.637 69.6909 129.365C68.0624 128.535 66.2259 127.653 66.0445 125.913C65.9516 124.845 67.7305 123.927 69.2041 123.759C72.4833 123.34 74.1693 123.759 77.2802 124.748C80.1212 125.741 83.4402 124.452 86.1042 126.05H86.0998Z" fill="#212189"/>
<path d="M81.2791 131.4C75.3802 131.559 70.1894 130.424 67.5254 128.623M84.7795 119.459C91.5678 119.945 96.5904 122.152 96.6657 125.03C96.6745 125.432 96.555 125.904 96.3603 126.244" stroke="#212189" stroke-width="1.10084" stroke-linecap="round" stroke-linejoin="round"/>
<path d="M97.482 120.343C93.8091 118.431 87.7465 117.257 80.9095 117.438C74.0724 117.619 68.0807 119.12 64.5139 121.225L60.9648 121.323L61.0799 125.732C61.195 130.01 70.2667 133.245 81.3254 132.954C92.3841 132.663 101.27 128.941 101.155 124.664L101.04 120.25L97.4909 120.347V120.338L97.482 120.343Z" fill="#FCF9E8"/>
<path d="M92.322 123.759L92.4326 127.855L92.5167 130.892M77.4089 125.357L77.5062 129.065L77.6036 132.773M64.8633 123.379L64.9518 126.734L65.0403 130.089" stroke="#212189" stroke-width="1.10084" stroke-linecap="round" stroke-linejoin="round"/>
<path d="M97.482 120.343C93.8091 118.431 87.7465 117.257 80.9095 117.438C74.0724 117.619 68.0807 119.12 64.5139 121.225L60.9648 121.323L61.0799 125.732C61.195 130.01 70.2667 133.245 81.3254 132.954C92.3842 132.663 101.239 128.88 101.124 124.602L100.974 119.045L97.4865 120.351V120.343H97.482Z" stroke="#212189" stroke-width="1.10084" stroke-miterlimit="10"/>
<path d="M81.1822 127.869C92.2409 127.578 101.127 123.857 101.012 119.579C100.897 115.302 91.8249 112.066 80.7662 112.358C69.7075 112.649 60.8216 116.37 60.9367 120.648C61.0517 124.925 70.1235 128.161 81.1822 127.869Z" fill="white"/>
<path d="M81.2471 127.767C92.3146 127.471 101.121 123.763 101.006 119.477C100.891 115.195 91.8942 111.96 80.8267 112.256C69.7591 112.551 60.8865 116.264 60.9971 120.546C61.1122 124.827 70.1751 128.063 81.2426 127.767H81.2471Z" stroke="#212189" stroke-width="1.10084" stroke-linecap="round" stroke-linejoin="round"/>
<path d="M85.9591 120.784C86.3043 120.974 86.5787 121.234 86.7203 121.565C86.8619 121.896 86.9371 122.223 86.884 122.633C86.8221 122.969 86.7026 123.309 86.4415 123.582C85.9193 124.13 85.3263 124.479 84.5917 124.699C82.4676 125.428 80.2638 125.75 78.0424 125.679C75.1615 125.692 72.1346 125.37 69.5503 124.099C67.9218 123.269 66.0853 122.386 65.9039 120.647C65.811 119.579 67.5899 118.665 69.0635 118.493C72.3426 118.073 74.0287 118.493 77.1396 119.482C79.9806 120.475 83.2996 119.186 85.9636 120.784H85.9591Z" fill="#FFE98F"/>
<path d="M81.1404 126.129C75.2415 126.288 70.0507 125.154 67.3867 123.353M84.6408 114.193C91.4291 114.679 96.4518 116.886 96.527 119.764C96.5358 120.166 96.4164 120.638 96.2217 120.978" stroke="#212189" stroke-width="1.10084" stroke-linecap="round" stroke-linejoin="round"/>
<path d="M97.3453 115.138C93.6724 113.227 87.6098 112.052 80.7727 112.233C73.9357 112.414 67.9439 113.915 64.3772 116.021L60.8281 116.118L60.9432 120.528C61.0582 124.805 70.13 128.041 81.1887 127.749C92.2474 127.458 101.133 123.737 101.018 119.46L100.903 115.045L97.3542 115.142V115.134L97.3453 115.138Z" fill="#FFE98F"/>
<path d="M97.7115 116.264L97.8221 120.36L97.9062 123.397M85.8695 119.923L86.0687 127.343M69.4961 119.764L69.6775 126.469" stroke="#212189" stroke-width="1.10084" stroke-linecap="round" stroke-linejoin="round"/>
<path d="M97.3453 115.138C93.6724 113.227 87.6098 112.052 80.7728 112.233C73.9357 112.414 67.9439 113.915 64.3772 116.021L60.8281 116.118L60.9432 120.528C61.0582 124.805 70.13 128.041 81.1887 127.749C92.2474 127.458 101.102 123.675 100.987 119.398L100.837 113.84L97.3498 115.147V115.138H97.3453Z" stroke="#212189" stroke-width="1.10084" stroke-miterlimit="10"/>
<path d="M81.0396 122.665C92.0983 122.373 100.984 118.652 100.869 114.375C100.754 110.097 91.6823 106.862 80.6236 107.153C69.5649 107.444 60.679 111.166 60.7941 115.443C60.9091 119.72 69.9809 122.956 81.0396 122.665Z" fill="white"/>
<path d="M81.1104 122.563C92.1779 122.267 100.984 118.559 100.869 114.273C100.754 109.991 91.7575 106.755 80.69 107.051C69.6224 107.347 60.7498 111.059 60.8604 115.341C60.9755 119.623 70.0384 122.858 81.1059 122.563H81.1104Z" stroke="#212189" stroke-width="1.10084" stroke-linecap="round" stroke-linejoin="round"/>
<path d="M85.8224 115.579C86.1676 115.769 86.4419 116.029 86.5836 116.36C86.7252 116.691 86.8004 117.018 86.7473 117.429C86.6853 117.764 86.5659 118.104 86.3048 118.378C85.7826 118.925 85.1896 119.274 84.455 119.494C82.3309 120.223 80.1271 120.545 77.9056 120.474C75.0248 120.488 71.9979 120.165 69.4136 118.894C67.7851 118.064 65.9486 117.181 65.7672 115.442C65.6742 114.374 67.4532 113.46 68.9268 113.288C72.2059 112.869 73.8919 113.288 77.0029 114.277C79.8439 115.27 83.1628 113.981 85.8268 115.579H85.8224Z" fill="#FCF9E8"/>
<path d="M80.9978 120.93C75.099 121.088 69.9037 119.954 67.2441 118.153M84.5026 108.993C91.291 109.479 96.3136 111.686 96.3889 114.564C96.3977 114.966 96.2782 115.438 96.0835 115.778" stroke="#212189" stroke-width="1.10084" stroke-linecap="round" stroke-linejoin="round"/>
<path d="M97.2135 110.106C93.5671 108.212 87.5488 107.047 80.7649 107.228C73.981 107.409 68.0334 108.897 64.4932 110.989L60.9707 111.086L61.0858 115.465C61.2008 119.707 70.2062 122.921 81.1808 122.629C92.1555 122.338 100.975 118.643 100.856 114.397L100.74 110.018L97.218 110.115V110.106H97.2135Z" fill="white"/>
<path d="M66.0664 115.116L66.1328 120.259M91.4231 113.858L91.6178 120.996M77.0853 115.994L77.2623 122.408" stroke="#212189" stroke-width="1.11542" stroke-linecap="round" stroke-linejoin="round"/>
<path d="M97.2236 110.115C97.2236 110.115 87.5544 107.047 80.7705 107.228C73.9866 107.409 68.039 108.897 64.4988 110.989L61.0117 110.583L61.0914 115.469C61.2064 119.711 70.2118 122.925 81.1865 122.634C92.1611 122.342 100.83 118.608 100.835 114.344L100.777 109.612" stroke="#212189" stroke-width="1.11542" stroke-miterlimit="10"/>
<path d="M81.043 117.579C92.0177 117.288 100.638 113.593 100.523 109.351C100.408 105.109 91.6017 101.896 80.627 102.187C69.6524 102.478 60.8329 106.173 60.9524 110.42C61.0674 114.662 70.0728 117.875 81.0474 117.584L81.043 117.579Z" fill="white"/>
<path d="M81.1074 117.478C92.0909 117.182 100.884 113.5 100.773 109.249C100.658 104.998 91.6749 101.789 80.6914 102.085C69.7079 102.381 60.9017 106.067 61.0167 110.318C61.1318 114.569 70.1283 117.778 81.1118 117.482L81.1074 117.478Z" stroke="#212189" stroke-width="1.11542" stroke-linecap="round" stroke-linejoin="round"/>
<path d="M85.7833 110.547C86.1241 110.737 86.3984 110.993 86.5356 111.324C86.6728 111.655 86.7524 111.977 86.6993 112.383C86.6374 112.714 86.5179 113.054 86.2612 113.324C85.7435 113.867 85.1549 114.215 84.4248 114.432C82.3139 115.155 80.1278 115.473 77.9241 115.403C75.0653 115.416 72.0606 115.098 69.4984 113.84C67.8832 113.019 66.0555 112.141 65.8785 110.419C65.7856 109.355 67.5513 108.45 69.016 108.278C72.2686 107.859 73.9458 108.278 77.0302 109.258C79.849 110.242 83.1414 108.962 85.7877 110.547H85.7833Z" fill="#FCF9E8"/>
<path d="M81.0035 115.858C75.1489 116.017 69.9934 114.891 67.3516 113.108M84.4773 104.01C91.2125 104.491 96.1954 106.68 96.2706 109.536C96.2794 109.934 96.16 110.402 95.9697 110.741" stroke="#212189" stroke-width="1.11542" stroke-linecap="round" stroke-linejoin="round"/>
<path d="M65.2582 81.9784C65.2582 81.9784 65.2228 81.9651 65.2051 81.9607L65.2228 83.0333L65.3024 89.2707" stroke="#212189" stroke-width="1.10084" stroke-linecap="round" stroke-linejoin="round"/>
<path d="M100.414 81.7971V81.8013" stroke="#212189" stroke-width="1.10084" stroke-linecap="round" stroke-linejoin="round"/>
<path d="M80.542 89.3898C91.6095 89.094 100.416 85.386 100.301 81.0998C100.186 76.818 91.1891 73.5824 80.1216 73.8781C69.054 74.1739 60.1814 77.8863 60.292 82.1681C60.4071 86.4499 69.47 89.6855 80.5376 89.3898H80.542Z" stroke="#212189" stroke-width="1.10084" stroke-linecap="round" stroke-linejoin="round"/>
<mask id="mask0_6350_31150" style="mask-type:luminance" maskUnits="userSpaceOnUse" x="57" y="44" width="40" height="46">
<path d="M96.8507 85.1917C96.8507 85.1917 86.6417 91.9499 67.7503 87.7563L57.7227 49.4716L91.6112 44.5012L96.8507 85.1917Z" fill="white"/>
</mask>
<g mask="url(#mask0_6350_31150)">
<path d="M88.0635 86.8262C88.6521 82.7695 87.7582 76.7176 85.342 70.3876C82.9258 64.0619 79.5449 58.9547 76.3985 56.315L75.1373 53.0308L71.0351 54.589C67.0568 56.1031 67.0037 65.6422 70.9112 75.8744C74.8187 86.1067 81.2353 93.1871 85.2092 91.6686L89.3114 90.1104L88.0547 86.8262H88.0591H88.0635Z" fill="#FFE98F"/>
<path d="M73.0117 59.1616L68.166 60.9229M82.5968 82.6101L75.9102 85.1571M75.8261 69.822L69.8166 72.113" stroke="#212189" stroke-width="1.11542" stroke-linecap="round" stroke-linejoin="round"/>
<path d="M88.0547 86.8351C88.0547 86.8351 87.7582 76.7177 85.342 70.392C82.9258 64.0664 79.5449 58.9592 76.3985 56.3194L75.6285 52.9028L71.0351 54.5935C67.0568 56.1076 67.0037 65.6467 70.9112 75.8789C74.8187 86.1111 81.2221 93.0371 85.2579 91.6289L89.7141 90.0045" stroke="#212189" stroke-width="1.11542" stroke-miterlimit="10"/>
<path d="M75.6397 74.0732C79.5472 84.3054 85.8975 91.2005 89.8713 89.6864C93.8497 88.1723 93.9736 78.8185 90.0616 68.5863C86.1541 58.3541 79.7375 51.2737 75.7636 52.7922C71.7853 54.3063 71.7322 63.8454 75.6397 74.0776V74.0732Z" fill="white"/>
<path d="M75.758 74.0996C79.6744 84.3406 86.0689 91.399 90.0516 89.8849C94.0343 88.3708 94.0963 78.8493 90.1799 68.6083C86.2636 58.3672 79.8647 51.2956 75.8819 52.8141C71.8992 54.3282 71.8417 63.8585 75.758 74.0996Z" stroke="#212189" stroke-width="1.11542" stroke-linecap="round" stroke-linejoin="round"/>
<path d="M83.8592 76.2097C83.7928 76.5937 83.6379 76.9336 83.3724 77.1764C83.1069 77.4192 82.8237 77.5957 82.4254 77.684C82.0935 77.737 81.7307 77.737 81.3899 77.5825C80.704 77.2779 80.1818 76.8365 79.7349 76.2229C78.3542 74.4749 77.3275 72.5238 76.6637 70.427C75.7035 67.7387 75.0131 64.8033 75.3539 61.9781C75.5973 60.186 75.823 58.1775 77.3939 57.4403C78.3675 57.0033 79.8101 58.3629 80.4562 59.6827C81.9298 62.605 82.0891 64.3221 82.182 67.5489C82.182 70.5285 84.4832 73.2036 83.8592 76.2185V76.2097Z" fill="#FCF9E8"/>
<path d="M77.2579 73.464C75.1691 68.008 74.5275 62.7816 75.3417 59.7048M89.6132 72.8107C91.3877 79.3129 90.9673 84.7247 88.29 85.74C87.9139 85.8769 87.4359 85.921 87.0509 85.8548" stroke="#212189" stroke-width="1.11542" stroke-linecap="round" stroke-linejoin="round"/>
</g>
<path d="M99.2003 9.69825C95.1157 10.1353 89.4558 12.4969 83.911 16.3991C78.3617 20.3012 74.2418 24.8303 72.4584 28.525L69.582 30.5555L72.1133 34.1355C74.5693 37.6051 83.8446 35.2964 92.819 28.9841C101.789 22.6717 107.077 14.7217 104.621 11.2521L102.09 7.67212L99.2135 9.70267H99.2047L99.2003 9.69825Z" fill="#FFCA61"/>
<path d="M76.0566 31.0946L78.9685 35.3411M96.4615 16.0244L100.59 21.8556M85.7125 25.7313L89.4253 30.971" stroke="#212189" stroke-width="1.11542" stroke-linecap="round" stroke-linejoin="round"/>
<path d="M99.2133 9.7028C99.2133 9.7028 89.46 12.497 83.9152 16.3992C78.3659 20.3014 74.246 24.8304 72.4626 28.5251L69.334 30.1142L72.113 34.1356C74.5691 37.6052 83.8488 35.2966 92.8188 28.9842C101.789 22.6718 106.931 14.7703 104.563 11.2213L101.882 7.3147" stroke="#212189" stroke-width="1.11542" stroke-miterlimit="10"/>
<path d="M89.8912 24.8616C98.8612 18.5492 103.986 10.7095 101.53 7.23992C99.0736 3.77032 89.9576 5.96861 80.9876 12.281C72.0176 18.5933 66.7295 26.5434 69.1855 30.013C71.6415 33.4826 80.9168 31.1739 89.8912 24.8616Z" fill="white"/>
<path d="M89.8896 24.7422C98.864 18.421 104.139 10.493 101.683 7.01904C99.2269 3.54504 89.9648 5.84486 80.986 12.1616C72.0116 18.4828 66.7278 26.4196 69.1838 29.8936C71.6398 33.3676 80.9107 31.0634 89.8896 24.7422Z" stroke="#212189" stroke-width="1.11542" stroke-linecap="round" stroke-linejoin="round"/>
<path d="M89.9281 16.3903C90.3175 16.3594 90.6892 16.4256 90.9857 16.6198C91.2822 16.8141 91.53 17.0436 91.7115 17.41C91.8442 17.719 91.9327 18.0677 91.8708 18.4341C91.7424 19.1713 91.4459 19.7893 90.9592 20.3719C89.605 22.1421 87.9633 23.6164 86.0914 24.7774C83.7194 26.3709 81.0422 27.7658 78.21 28.1366C76.4089 28.3485 74.4043 28.6266 73.2936 27.2891C72.6253 26.4548 73.5945 24.7244 74.7141 23.7709C77.1878 21.6256 78.8163 21.0473 81.9272 20.1557C84.8213 19.4185 86.8481 16.5271 89.9325 16.3859H89.9281V16.3903Z" fill="#FCF9E8"/>
<path d="M88.9025 23.453C84.1188 26.8211 79.2023 28.7368 76.0117 28.7104M85.2074 11.6714C91.0797 8.34747 96.4475 7.41165 98.0937 9.74678C98.3194 10.0734 98.4832 10.5281 98.5141 10.9166" stroke="#212189" stroke-width="1.11542" stroke-linecap="round" stroke-linejoin="round"/>
<path d="M97.0651 104.937C93.4187 103.043 87.4003 101.878 80.6164 102.059C73.8325 102.24 67.885 103.727 64.3448 105.82L60.8223 105.917L60.9373 110.296C61.0524 114.538 70.0578 117.751 81.0324 117.46C92.007 117.169 100.827 113.474 100.707 109.227L100.592 104.849L97.0695 104.946V104.937H97.0651Z" fill="#FFE98F"/>
<path d="M71.6172 111.567L71.6836 116.71M95.841 107.175L96.0357 114.313M83.6716 110.755L83.8486 117.169" stroke="#212189" stroke-width="1.11542" stroke-linecap="round" stroke-linejoin="round"/>
<path d="M97.0751 104.95C97.0751 104.95 87.406 101.882 80.622 102.063C73.8381 102.244 67.8906 103.731 64.3504 105.824L60.8633 105.418L60.9429 110.304C61.058 114.546 70.0634 117.76 81.038 117.469C92.0126 117.177 100.682 113.443 100.686 109.179L100.629 104.447" stroke="#212189" stroke-width="1.11542" stroke-miterlimit="10"/>
<path d="M80.8926 112.41C91.8673 112.118 100.488 108.424 100.373 104.182C100.258 99.9396 91.4513 96.726 80.4767 97.0174C69.502 97.3087 60.6825 101.003 60.802 105.25C60.917 109.492 69.9224 112.706 80.8971 112.414L80.8926 112.41Z" fill="white"/>
<path d="M80.957 112.309C91.9405 112.013 100.733 108.332 100.623 104.081C100.508 99.8298 91.5245 96.6206 80.541 96.9164C69.5575 97.2121 60.7513 100.898 60.8663 105.149C60.9814 109.4 69.9779 112.609 80.9614 112.313L80.957 112.309Z" stroke="#212189" stroke-width="1.11542" stroke-linecap="round" stroke-linejoin="round"/>
<path d="M85.6368 105.378C85.9776 105.568 86.2519 105.824 86.3891 106.155C86.5263 106.486 86.606 106.808 86.5528 107.214C86.4909 107.545 86.3714 107.885 86.1147 108.155C85.597 108.698 85.0084 109.046 84.2783 109.263C82.1674 109.987 79.9813 110.304 77.7776 110.234C74.9189 110.247 71.9141 109.929 69.3519 108.671C67.7367 107.85 65.909 106.972 65.732 105.25C65.6391 104.186 67.4048 103.281 68.8695 103.109C72.1221 102.69 73.7993 103.109 76.8837 104.089C79.7026 105.073 82.9949 103.793 85.6412 105.378H85.6368Z" fill="#FCF9E8"/>
<path d="M80.8511 110.688C74.9965 110.847 69.8411 109.722 67.1992 107.938M84.325 98.8406C91.0602 99.3217 96.043 101.511 96.1183 104.367C96.1271 104.764 96.0076 105.232 95.8173 105.572" stroke="#212189" stroke-width="1.11542" stroke-linecap="round" stroke-linejoin="round"/>
</svg>
