<svg width="311" height="191" viewBox="0 0 311 191" fill="none" xmlns="http://www.w3.org/2000/svg">
<rect x="0.5" y="0.5" width="310" height="190" rx="15.5" fill="white"/>
<rect x="0.5" y="0.5" width="310" height="190" rx="15.5" stroke="#E5E5E9"/>
<g clip-path="url(#clip0_6350_31352)">
<rect x="16" y="18" width="20" height="20" rx="10" fill="#E2E2FF"/>
<g clip-path="url(#clip1_6350_31352)">
<path fill-rule="evenodd" clip-rule="evenodd" d="M26.083 21.9195C26.4976 21.8543 26.9172 22.0015 27.2003 22.3114C27.4131 22.5445 27.4713 22.8822 27.4985 23.2032C27.5272 23.5421 27.5272 23.9936 27.5272 24.5585V24.5797V25.5564C27.5272 25.7967 27.5275 25.9518 27.5372 26.0698C27.5464 26.183 27.5621 26.225 27.5726 26.2456C27.6126 26.324 27.6763 26.3877 27.7547 26.4277C27.7753 26.4382 27.8173 26.4539 27.9305 26.4631C28.0485 26.4728 28.2036 26.4731 28.4439 26.4731H28.7808H28.8019C29.228 26.4731 29.5767 26.4731 29.8461 26.4976C30.1123 26.5218 30.3862 26.5747 30.601 26.7462C30.8985 26.9837 31.0715 27.3438 31.0711 27.7245C31.0708 27.9993 30.9411 28.2462 30.7937 28.4692C30.6445 28.6949 30.4267 28.9671 30.1605 29.2999L30.1473 29.3163L27.5882 32.5153L27.5749 32.5318C27.222 32.973 26.94 33.3255 26.7058 33.5722C26.4841 33.8058 26.2277 34.0332 25.9159 34.0823C25.5013 34.1475 25.0816 34.0003 24.7986 33.6904C24.5858 33.4573 24.5276 33.1196 24.5004 32.7986C24.4717 32.4596 24.4717 32.0082 24.4717 31.4432V31.4221V30.4453C24.4717 30.2051 24.4713 30.05 24.4617 29.9319C24.4524 29.8187 24.4367 29.7768 24.4262 29.7562C24.3863 29.6778 24.3226 29.614 24.2442 29.5741C24.2236 29.5636 24.1816 29.5479 24.0684 29.5386C23.9503 29.529 23.7952 29.5287 23.555 29.5287H23.218H23.197C22.7708 29.5287 22.4222 29.5287 22.1528 29.5042C21.8865 29.48 21.6127 29.4271 21.3979 29.2556C21.1004 29.0181 20.9273 28.658 20.9277 28.2773C20.928 28.0025 21.0577 27.7556 21.2051 27.5326C21.3544 27.3069 21.5722 27.0346 21.8384 26.7019L21.8515 26.6854L24.4107 23.4865L24.4239 23.47C24.7768 23.0288 25.0589 22.6763 25.293 22.4296C25.5148 22.1959 25.7712 21.9685 26.083 21.9195Z" fill="#4242CF"/>
</g>
<path d="M46.88 30.336H44.752V34H43.088V24.176H46.88C48.912 24.176 50.24 25.232 50.24 27.264C50.24 29.264 48.912 30.336 46.88 30.336ZM48.592 27.264C48.592 26.288 48 25.616 46.848 25.616H44.752V28.896H46.848C48 28.896 48.592 28.208 48.592 27.264ZM57.4585 26.896V34H55.8585V33.328C55.4745 33.776 54.7865 34.16 53.9545 34.16C52.3385 34.16 51.4585 33.088 51.4585 31.52V26.896H53.0585V31.248C53.0585 32.128 53.4745 32.704 54.3865 32.704C55.0745 32.704 55.6825 32.272 55.8585 31.568V26.896H57.4585ZM63.4131 26.864V28.512C63.1891 28.352 62.8051 28.272 62.4691 28.272C61.8131 28.272 61.2051 28.64 61.0451 29.408V34H59.4451V26.896H61.0451V27.632C61.3171 27.104 61.9411 26.736 62.6291 26.736C62.9811 26.736 63.3011 26.8 63.4131 26.864ZM64.1523 30.448C64.1523 28.24 65.5443 26.736 67.4643 26.736C69.1603 26.736 70.2323 27.696 70.4403 29.12H68.8403C68.7123 28.48 68.1843 28.128 67.4803 28.128C66.4083 28.128 65.7523 29.104 65.7523 30.448C65.7523 31.792 66.4083 32.768 67.4803 32.768C68.1843 32.768 68.7123 32.416 68.8403 31.776H70.4403C70.2323 33.2 69.1603 34.16 67.4643 34.16C65.5443 34.16 64.1523 32.656 64.1523 30.448ZM71.867 34V23.6H73.467V27.568C73.851 27.12 74.555 26.736 75.387 26.736C77.003 26.736 77.899 27.808 77.899 29.376V34H76.299V29.648C76.299 28.768 75.867 28.192 74.955 28.192C74.267 28.192 73.643 28.624 73.467 29.328V34H71.867ZM85.2609 34H83.7409V33.6C83.5009 33.84 82.7809 34.128 81.9809 34.128C80.5249 34.128 79.3249 33.264 79.3249 31.808C79.3249 30.464 80.5249 29.52 82.0929 29.52C82.7329 29.52 83.4529 29.744 83.7409 29.952V29.376C83.7409 28.656 83.2929 28.096 82.3809 28.096C81.7409 28.096 81.3409 28.368 81.1649 28.864H79.6289C79.8369 27.648 80.9569 26.736 82.4129 26.736C84.2049 26.736 85.2609 27.728 85.2609 29.344V34ZM83.7409 32.112V31.52C83.5649 31.072 82.9249 30.8 82.2849 30.8C81.5649 30.8 80.8129 31.104 80.8129 31.808C80.8129 32.528 81.5649 32.832 82.2849 32.832C82.9249 32.832 83.5649 32.56 83.7409 32.112ZM86.6523 31.952H88.2843C88.4603 32.544 88.9883 32.848 89.6923 32.848C90.4283 32.848 90.9083 32.56 90.9083 32C90.9083 31.616 90.6683 31.408 90.0763 31.264L88.6043 30.912C87.5963 30.672 86.8443 30.128 86.8443 28.96C86.8443 27.68 87.9803 26.736 89.5323 26.736C91.1963 26.736 92.1403 27.536 92.3803 28.832H90.8123C90.6683 28.368 90.2523 28.048 89.5163 28.048C88.9563 28.048 88.3803 28.304 88.3803 28.864C88.3803 29.184 88.6043 29.392 89.1163 29.52L90.6203 29.872C91.8363 30.16 92.4443 30.848 92.4443 31.888C92.4443 33.296 91.2763 34.16 89.6763 34.16C88.0123 34.16 86.8603 33.328 86.6523 31.952ZM95.6076 26.896V34H94.0076V26.896H95.6076ZM95.7996 24.752C95.7996 25.296 95.3356 25.728 94.8076 25.728C94.2796 25.728 93.8156 25.296 93.8156 24.752C93.8156 24.208 94.2796 23.776 94.8076 23.776C95.3356 23.776 95.7996 24.208 95.7996 24.752ZM97.5858 34V26.896H99.1858V27.568C99.5698 27.12 100.274 26.736 101.106 26.736C102.722 26.736 103.618 27.808 103.618 29.376V34H102.018V29.648C102.018 28.768 101.586 28.192 100.674 28.192C99.9858 28.192 99.3618 28.624 99.1858 29.328V34H97.5858ZM110.116 33.52V33.2C109.796 33.584 109.108 33.936 108.308 33.936C106.212 33.936 105.012 32.208 105.012 30.336C105.012 28.464 106.212 26.736 108.308 26.736C109.108 26.736 109.796 27.088 110.116 27.472V26.896H111.716V33.408C111.716 35.808 110.26 36.88 108.372 36.88C106.564 36.88 105.396 35.936 105.22 34.384H106.772C106.932 35.168 107.492 35.568 108.372 35.568C109.556 35.568 110.116 34.848 110.116 33.52ZM110.116 31.68V28.992C109.844 28.512 109.252 28.144 108.58 28.144C107.348 28.144 106.644 29.072 106.644 30.336C106.644 31.6 107.348 32.528 108.58 32.528C109.252 32.528 109.844 32.16 110.116 31.68ZM118.826 33.392V36.72H117.226V26.896H118.826V27.504C119.146 27.104 119.85 26.736 120.634 26.736C122.714 26.736 123.93 28.464 123.93 30.448C123.93 32.432 122.714 34.16 120.634 34.16C119.85 34.16 119.146 33.792 118.826 33.392ZM118.826 29.104V31.792C119.098 32.352 119.706 32.736 120.362 32.736C121.594 32.736 122.33 31.76 122.33 30.448C122.33 29.136 121.594 28.16 120.362 28.16C119.706 28.16 119.098 28.544 118.826 29.104ZM131.717 30.448C131.717 32.624 130.341 34.16 128.341 34.16C126.341 34.16 124.965 32.624 124.965 30.448C124.965 28.272 126.341 26.736 128.341 26.736C130.341 26.736 131.717 28.272 131.717 30.448ZM130.117 30.448C130.117 29.104 129.493 28.112 128.341 28.112C127.189 28.112 126.565 29.104 126.565 30.448C126.565 31.792 127.189 32.784 128.341 32.784C129.493 32.784 130.117 31.792 130.117 30.448ZM138.187 26.896L139.435 31.936L140.811 26.896H142.363L140.299 34H138.699L137.435 29.056L136.171 34H134.571L132.507 26.896H134.107L135.483 31.936L136.731 26.896H138.187ZM148.032 31.792H149.504C149.264 33.2 148.224 34.16 146.512 34.16C144.528 34.16 143.152 32.656 143.152 30.464C143.152 28.336 144.544 26.736 146.48 26.736C148.48 26.736 149.568 28.16 149.568 30.24V30.816H144.72C144.768 32.064 145.488 32.816 146.512 32.816C147.28 32.816 147.856 32.48 148.032 31.792ZM146.496 28.08C145.616 28.08 144.96 28.624 144.768 29.648H147.984C147.968 28.784 147.472 28.08 146.496 28.08ZM155.007 26.864V28.512C154.783 28.352 154.399 28.272 154.063 28.272C153.407 28.272 152.799 28.64 152.639 29.408V34H151.039V26.896H152.639V27.632C152.911 27.104 153.535 26.736 154.223 26.736C154.575 26.736 154.895 26.8 155.007 26.864Z" fill="#4B4B5C"/>
<line x1="27" y1="116.5" x2="291" y2="116.5" stroke="#D8D8DF"/>
<line x1="27.5" y1="110.5" x2="27.5" y2="116.5" stroke="#D8D8DF"/>
<line x1="107.5" y1="110.5" x2="107.5" y2="116.5" stroke="#D8D8DF"/>
<line x1="187.5" y1="110.5" x2="187.5" y2="116.5" stroke="#D8D8DF"/>
<line x1="267.5" y1="110.5" x2="267.5" y2="116.5" stroke="#D8D8DF"/>
<path d="M16.3137 131.965H18.0297C18.0947 132.693 18.4847 133.122 19.1997 133.122C20.0447 133.122 20.4347 132.628 20.4347 131.601V126.518H22.0987V131.614C22.0987 133.642 20.9287 134.63 19.2127 134.63C17.4057 134.63 16.4177 133.525 16.3137 131.965ZM27.1979 134.63C25.2089 134.63 23.8829 133.486 23.8829 131.289V126.518H25.5469V131.12C25.5469 132.485 26.1449 133.135 27.1979 133.135C28.2509 133.135 28.8489 132.485 28.8489 131.12V126.518H30.5129V131.289C30.5129 133.486 29.1999 134.63 27.1979 134.63ZM39.1165 126.518V134.5H37.8035L34.0335 129.183V134.5H32.4345V126.518H33.9945L37.5175 131.562V126.518H39.1165Z" fill="#4B4B5C"/>
<path d="M96.6262 132.465H98.3422C98.4072 133.193 98.7972 133.622 99.5122 133.622C100.357 133.622 100.747 133.128 100.747 132.101V127.018H102.411V132.114C102.411 134.142 101.241 135.13 99.5252 135.13C97.7182 135.13 96.7302 134.025 96.6262 132.465ZM107.51 135.13C105.521 135.13 104.195 133.986 104.195 131.789V127.018H105.859V131.62C105.859 132.985 106.457 133.635 107.51 133.635C108.563 133.635 109.161 132.985 109.161 131.62V127.018H110.825V131.789C110.825 133.986 109.512 135.13 107.51 135.13ZM112.747 135V127.018H114.411V133.531H118.129V135H112.747Z" fill="#4B4B5C"/>
<path d="M177.323 126.518H178.974L182.029 134.5H180.339L179.624 132.576H176.634L175.932 134.5H174.268L177.323 126.518ZM178.129 128.52L177.154 131.172H179.104L178.129 128.52ZM186.383 134.63C184.394 134.63 183.068 133.486 183.068 131.289V126.518H184.732V131.12C184.732 132.485 185.33 133.135 186.383 133.135C187.436 133.135 188.034 132.485 188.034 131.12V126.518H189.698V131.289C189.698 133.486 188.385 134.63 186.383 134.63ZM196.924 131.64H195.403V130.314H198.549V131.016C198.549 133.226 197.093 134.63 195.078 134.63C192.855 134.63 191.23 132.953 191.23 130.509C191.23 128.065 192.868 126.388 195.039 126.388C196.963 126.388 198.12 127.493 198.419 129.092H196.742C196.456 128.338 195.962 127.87 195.039 127.87C193.726 127.87 192.92 128.975 192.92 130.509C192.92 132.056 193.739 133.161 195.078 133.161C196.105 133.161 196.742 132.55 196.924 131.64Z" fill="#4B4B5C"/>
<path d="M256.336 132.225H258.052C258.273 132.927 258.858 133.252 259.638 133.252C260.444 133.252 260.977 132.888 260.977 132.251C260.977 131.77 260.691 131.51 260.002 131.354L258.572 131.029C257.428 130.769 256.544 130.158 256.544 128.845C256.544 127.402 257.74 126.388 259.417 126.388C261.237 126.388 262.29 127.35 262.55 128.702H260.899C260.717 128.169 260.262 127.753 259.43 127.753C258.676 127.753 258.169 128.117 258.169 128.689C258.169 129.144 258.468 129.417 259.066 129.56L260.522 129.898C261.822 130.197 262.615 130.938 262.615 132.147C262.615 133.694 261.341 134.63 259.651 134.63C257.87 134.63 256.609 133.746 256.336 132.225ZM264.276 126.518H269.697V127.974H265.914V129.716H269.346V131.133H265.914V133.031H269.697V134.5H264.276V126.518ZM274.729 131.731H273.13V134.5H271.479V126.518H274.729C276.419 126.518 277.537 127.428 277.537 129.131C277.537 130.821 276.419 131.731 274.729 131.731ZM275.899 129.131C275.899 128.416 275.483 127.935 274.625 127.935H273.13V130.314H274.625C275.483 130.314 275.899 129.82 275.899 129.131Z" fill="#4B4B5C"/>
<path d="M65.4272 69.1259L27 99H291V51L233.11 81.5433L195.181 61.7413L141.284 81.5433L99.3629 57.3776L65.4272 69.1259Z" fill="url(#paint0_linear_6350_31352)"/>
<path d="M27 99L65.0721 69L100.139 57.3333L141.717 81.9979L196.321 61.6667L233.892 81.9979L291 52" stroke="#6060FC" stroke-width="1.5"/>
<circle cx="27.5" cy="98.5" r="2" fill="#F7F7F8" stroke="#4A4AF4"/>
<circle cx="65.5" cy="68.5" r="2" fill="#F7F7F8" stroke="#4A4AF4"/>
<circle cx="99.5" cy="57.5" r="2" fill="#F7F7F8" stroke="#4A4AF4"/>
<circle cx="141.5" cy="81.5" r="2" fill="#F7F7F8" stroke="#4A4AF4"/>
<circle cx="196.5" cy="62.5" r="2" fill="#F7F7F8" stroke="#4A4AF4"/>
<circle cx="233.5" cy="81.5" r="2" fill="#F7F7F8" stroke="#4A4AF4"/>
<circle cx="291" cy="52" r="3.5" fill="#4A4AF4" stroke="#4A4AF4"/>
</g>
<path d="M79.0167 161.914V162.866C78.8207 162.74 78.5827 162.698 78.3587 162.698C77.7427 162.698 77.3367 163.09 77.3367 163.832V164.784H78.7367V165.68H77.3367V171H76.3007V165.68H75.2507V164.784H76.3007V163.748C76.3007 162.502 77.1127 161.774 78.2047 161.774C78.5407 161.774 78.7787 161.816 79.0167 161.914ZM85.3739 167.892C85.3739 169.796 84.2119 171.126 82.5179 171.126C80.8099 171.126 79.6619 169.796 79.6619 167.892C79.6619 165.988 80.8099 164.658 82.5179 164.658C84.2119 164.658 85.3739 165.988 85.3739 167.892ZM84.3099 167.892C84.3099 166.534 83.6379 165.582 82.5179 165.582C81.3979 165.582 80.7259 166.534 80.7259 167.892C80.7259 169.25 81.3979 170.202 82.5179 170.202C83.6379 170.202 84.3099 169.25 84.3099 167.892ZM90.2374 164.756V165.834C90.0694 165.722 89.8034 165.666 89.5374 165.666C88.8794 165.666 88.3054 166.1 88.0954 166.828V171H87.0454V164.784H88.0954V165.596C88.3614 165.064 88.9494 164.658 89.6354 164.658C89.9014 164.658 90.1254 164.7 90.2374 164.756ZM96.1833 164.784V171H95.1333V164.784H96.1833ZM96.3373 162.908C96.3373 163.272 96.0293 163.58 95.6513 163.58C95.2873 163.58 94.9793 163.272 94.9793 162.908C94.9793 162.53 95.2873 162.236 95.6513 162.236C96.0293 162.236 96.3373 162.53 96.3373 162.908ZM99.3591 161.9V171H98.3091V161.9H99.3591ZM102.535 161.9V171H101.485V161.9H102.535ZM109.617 164.784V171H108.553V170.216C108.203 170.706 107.545 171.126 106.747 171.126C105.333 171.126 104.577 170.216 104.577 168.858V164.784H105.641V168.69C105.641 169.558 106.061 170.16 106.999 170.16C107.727 170.16 108.329 169.67 108.553 168.998V164.784H109.617ZM111.215 169.292H112.307C112.503 169.936 113.049 170.244 113.777 170.244C114.519 170.244 115.051 169.95 115.051 169.32C115.051 168.886 114.771 168.62 114.127 168.452L112.895 168.13C112.013 167.906 111.397 167.458 111.397 166.492C111.397 165.386 112.363 164.658 113.623 164.658C114.995 164.658 115.807 165.33 116.031 166.422H114.981C114.799 165.862 114.365 165.54 113.609 165.54C112.993 165.54 112.419 165.834 112.419 166.436C112.419 166.856 112.699 167.052 113.287 167.22L114.491 167.514C115.555 167.794 116.073 168.382 116.073 169.25C116.073 170.426 115.093 171.126 113.763 171.126C112.405 171.126 111.411 170.44 111.215 169.292ZM118.074 169.432V165.68H117.066V164.784H118.074V163.146H119.124V164.784H120.622V165.68H119.124V169.32C119.124 169.922 119.418 170.188 119.95 170.188C120.244 170.188 120.552 170.076 120.762 169.936V170.916C120.524 171.042 120.16 171.126 119.782 171.126C118.774 171.126 118.074 170.58 118.074 169.432ZM125.665 164.756V165.834C125.497 165.722 125.231 165.666 124.965 165.666C124.307 165.666 123.733 166.1 123.523 166.828V171H122.473V164.784H123.523V165.596C123.789 165.064 124.377 164.658 125.063 164.658C125.329 164.658 125.553 164.7 125.665 164.756ZM131.565 171H130.557V170.538C130.319 170.79 129.661 171.112 128.919 171.112C127.659 171.112 126.609 170.356 126.609 169.124C126.609 167.962 127.659 167.178 128.989 167.178C129.633 167.178 130.291 167.444 130.557 167.682V166.898C130.557 166.128 130.081 165.568 129.185 165.568C128.527 165.568 128.107 165.848 127.911 166.422H126.875C127.085 165.372 128.009 164.658 129.199 164.658C130.683 164.658 131.565 165.498 131.565 166.856V171ZM130.557 169.46V168.816C130.375 168.354 129.745 168.046 129.101 168.046C128.345 168.046 127.617 168.382 127.617 169.124C127.617 169.88 128.345 170.23 129.101 170.23C129.745 170.23 130.375 169.922 130.557 169.46ZM133.863 169.432V165.68H132.855V164.784H133.863V163.146H134.913V164.784H136.411V165.68H134.913V169.32C134.913 169.922 135.207 170.188 135.739 170.188C136.033 170.188 136.341 170.076 136.551 169.936V170.916C136.313 171.042 135.949 171.126 135.571 171.126C134.563 171.126 133.863 170.58 133.863 169.432ZM139.312 164.784V171H138.262V164.784H139.312ZM139.466 162.908C139.466 163.272 139.158 163.58 138.78 163.58C138.416 163.58 138.108 163.272 138.108 162.908C138.108 162.53 138.416 162.236 138.78 162.236C139.158 162.236 139.466 162.53 139.466 162.908ZM144.196 171H143.16L140.752 164.784H141.886L143.706 169.67L145.512 164.784H146.618L144.196 171ZM151.87 169.138H152.864C152.64 170.314 151.758 171.126 150.358 171.126C148.664 171.126 147.502 169.824 147.502 167.906C147.502 166.044 148.636 164.658 150.33 164.658C152.038 164.658 152.948 165.904 152.948 167.71V168.088H148.552C148.566 169.418 149.308 170.23 150.358 170.23C151.128 170.23 151.702 169.838 151.87 169.138ZM150.344 165.554C149.406 165.554 148.734 166.198 148.58 167.29H151.884C151.87 166.366 151.38 165.554 150.344 165.554ZM158.988 170.272V173.38H157.938V164.784H158.988V165.512C159.31 165.064 159.968 164.658 160.738 164.658C162.572 164.658 163.538 166.17 163.538 167.892C163.538 169.614 162.572 171.126 160.738 171.126C159.968 171.126 159.31 170.72 158.988 170.272ZM158.988 166.632V169.152C159.31 169.796 159.926 170.174 160.584 170.174C161.774 170.174 162.474 169.208 162.474 167.892C162.474 166.576 161.774 165.61 160.584 165.61C159.926 165.61 159.31 165.988 158.988 166.632ZM170.171 164.784V171H169.107V170.216C168.757 170.706 168.099 171.126 167.301 171.126C165.887 171.126 165.131 170.216 165.131 168.858V164.784H166.195V168.69C166.195 169.558 166.615 170.16 167.553 170.16C168.281 170.16 168.883 169.67 169.107 168.998V164.784H170.171ZM175.48 164.756V165.834C175.312 165.722 175.046 165.666 174.78 165.666C174.122 165.666 173.548 166.1 173.338 166.828V171H172.288V164.784H173.338V165.596C173.604 165.064 174.192 164.658 174.878 164.658C175.144 164.658 175.368 164.7 175.48 164.756ZM178.086 170.272V173.38H177.036V164.784H178.086V165.512C178.408 165.064 179.066 164.658 179.836 164.658C181.67 164.658 182.636 166.17 182.636 167.892C182.636 169.614 181.67 171.126 179.836 171.126C179.066 171.126 178.408 170.72 178.086 170.272ZM178.086 166.632V169.152C178.408 169.796 179.024 170.174 179.682 170.174C180.872 170.174 181.572 169.208 181.572 167.892C181.572 166.576 180.872 165.61 179.682 165.61C179.024 165.61 178.408 165.988 178.086 166.632ZM189.604 167.892C189.604 169.796 188.442 171.126 186.748 171.126C185.04 171.126 183.892 169.796 183.892 167.892C183.892 165.988 185.04 164.658 186.748 164.658C188.442 164.658 189.604 165.988 189.604 167.892ZM188.54 167.892C188.54 166.534 187.868 165.582 186.748 165.582C185.628 165.582 184.956 166.534 184.956 167.892C184.956 169.25 185.628 170.202 186.748 170.202C187.868 170.202 188.54 169.25 188.54 167.892ZM190.758 169.292H191.85C192.046 169.936 192.592 170.244 193.32 170.244C194.062 170.244 194.594 169.95 194.594 169.32C194.594 168.886 194.314 168.62 193.67 168.452L192.438 168.13C191.556 167.906 190.94 167.458 190.94 166.492C190.94 165.386 191.906 164.658 193.166 164.658C194.538 164.658 195.35 165.33 195.574 166.422H194.524C194.342 165.862 193.908 165.54 193.152 165.54C192.536 165.54 191.962 165.834 191.962 166.436C191.962 166.856 192.242 167.052 192.83 167.22L194.034 167.514C195.098 167.794 195.616 168.382 195.616 169.25C195.616 170.426 194.636 171.126 193.306 171.126C191.948 171.126 190.954 170.44 190.758 169.292ZM201.243 169.138H202.237C202.013 170.314 201.131 171.126 199.731 171.126C198.037 171.126 196.875 169.824 196.875 167.906C196.875 166.044 198.009 164.658 199.703 164.658C201.411 164.658 202.321 165.904 202.321 167.71V168.088H197.925C197.939 169.418 198.681 170.23 199.731 170.23C200.501 170.23 201.075 169.838 201.243 169.138ZM199.717 165.554C198.779 165.554 198.107 166.198 197.953 167.29H201.257C201.243 166.366 200.753 165.554 199.717 165.554ZM203.481 169.292H204.573C204.769 169.936 205.315 170.244 206.043 170.244C206.785 170.244 207.317 169.95 207.317 169.32C207.317 168.886 207.037 168.62 206.393 168.452L205.161 168.13C204.279 167.906 203.663 167.458 203.663 166.492C203.663 165.386 204.629 164.658 205.889 164.658C207.261 164.658 208.073 165.33 208.297 166.422H207.247C207.065 165.862 206.631 165.54 205.875 165.54C205.259 165.54 204.685 165.834 204.685 166.436C204.685 166.856 204.965 167.052 205.553 167.22L206.757 167.514C207.821 167.794 208.339 168.382 208.339 169.25C208.339 170.426 207.359 171.126 206.029 171.126C204.671 171.126 203.677 170.44 203.481 169.292ZM218.649 167.892C218.649 169.796 217.487 171.126 215.793 171.126C214.085 171.126 212.937 169.796 212.937 167.892C212.937 165.988 214.085 164.658 215.793 164.658C217.487 164.658 218.649 165.988 218.649 167.892ZM217.585 167.892C217.585 166.534 216.913 165.582 215.793 165.582C214.673 165.582 214.001 166.534 214.001 167.892C214.001 169.25 214.673 170.202 215.793 170.202C216.913 170.202 217.585 169.25 217.585 167.892ZM220.321 171V164.784H221.371V165.568C221.735 165.078 222.407 164.658 223.205 164.658C224.619 164.658 225.389 165.568 225.389 166.926V171H224.325V167.094C224.325 166.226 223.891 165.624 222.953 165.624C222.225 165.624 221.595 166.114 221.371 166.786V171H220.321ZM228.47 161.9V171H227.42V161.9H228.47ZM232.43 173.38H231.394L232.332 171.042L229.91 164.784H231.044L232.878 169.684L234.684 164.784H235.776L232.43 173.38Z" fill="#4B4B5C"/>
<defs>
<linearGradient id="paint0_linear_6350_31352" x1="137.055" y1="51" x2="137.055" y2="105.66" gradientUnits="userSpaceOnUse">
<stop stop-color="#E2E2FF"/>
<stop offset="0.9" stop-color="white"/>
</linearGradient>
<clipPath id="clip0_6350_31352">
<rect width="279" height="125" fill="white" transform="translate(16 16)"/>
</clipPath>
<clipPath id="clip1_6350_31352">
<rect width="13.3333" height="13.3333" fill="white" transform="translate(19.332 21.334)"/>
</clipPath>
</defs>
</svg>
